<?xml version="1.0" encoding="iso-8859-1"?>
<!-- Generator: Adobe Illustrator 19.0.0, SVG Export Plug-In . SVG Version: 6.00 Build 0)  -->
<svg version="1.1" id="Layer_1" xmlns="http://www.w3.org/2000/svg" xmlns:xlink="http://www.w3.org/1999/xlink" x="0px" y="0px"
	 viewBox="0 0 298.904 298.904" style="enable-background:new 0 0 298.904 298.904;" xml:space="preserve">
<g>
	<g>
		<g>
			<g id="XMLID_25_">
				<g>
					<path style="fill:#FEDE94;" d="M57.667,81.507c-2.691,3.72-1.889,8.916,1.834,11.61c1.507,1.09,3.239,1.604,4.939,1.6
						c2.566,0,5.099-1.19,6.735-3.403l3.717-5.067c2.726-3.688,1.889-8.884-1.834-11.578c-3.72-2.726-8.948-1.921-11.674,1.802
						L57.667,81.507z M90.991,236.62c-40.954,0.019-74.26-39.062-74.282-87.136S49.96,62.303,90.914,62.284
						c40.922-0.019,74.228,39.062,74.25,87.136c0,2.405-0.093,4.746-0.285,7.088l-8.819-3.044c-3.528-1.248-7.344,0.067-9.461,2.954
						c-1.315,1.475-2.117,3.367-2.113,5.484c0.006,13.245,2.675,25.817,7.328,37.103C138.45,221.686,116.199,236.607,90.991,236.62z
						 M46.32,100.243c-1.09,1.475-26.058,36.699-4.868,88.936c1.283,3.239,4.429,5.224,7.732,5.224c1.058,0,2.117-0.192,3.143-0.609
						c4.265-1.735,6.347-6.546,4.612-10.811c-17.53-43.321,2.02-71.742,2.951-73.025c2.662-3.72,1.825-8.884-1.899-11.578
						C54.241,95.686,49.014,96.523,46.32,100.243z"/>
					<path style="fill:#2D213F;" d="M162.031,173.12c4.602,33.96,29.595,60.024,59.709,60.011
						c30.082-0.013,55.053-26.099,59.626-60.062l-26.167,9.086c-2.213,0.77-4.682,0.58-6.735-0.542l-26.786-14.451l-26.741,14.477
						c-1.251,0.641-2.63,0.994-4.009,0.994c-0.93,0-1.86-0.16-2.758-0.449L162.031,173.12z M90.914,62.284
						c-40.954,0.019-74.228,39.126-74.205,87.201s33.328,87.156,74.282,87.136c25.208-0.013,47.458-14.935,60.822-37.613
						c-4.653-11.286-7.322-23.857-7.328-37.103c0-2.117,0.799-4.009,2.113-5.484c2.117-2.886,5.93-4.204,9.461-2.954l8.819,3.044
						c0.192-2.341,0.285-4.682,0.285-7.088C165.142,101.346,131.837,62.265,90.914,62.284z M90.998,253.234
						C40.839,253.256,0.026,206.704,0,149.491s40.749-103.8,90.908-103.82c50.127-0.022,90.972,46.525,90.998,103.739
						c0.003,4.33-0.317,8.531-0.795,12.732l9.076,3.14l27.51-14.894c2.469-1.315,5.484-1.318,7.986-0.003l27.491,14.868
						l34.149-11.882c3.56-1.219,7.344,0.093,9.461,2.979c1.315,1.475,2.117,3.367,2.12,5.484
						c0.022,48.459-34.598,87.89-77.156,87.909c-24.759,0.01-46.798-13.354-60.951-34.034
						C144.133,238.587,119.06,253.221,90.998,253.234z"/>
					<path style="fill:#FEDE94;" d="M221.741,233.132c-30.114,0.013-55.11-26.051-59.709-60.011l26.141,9.063
						c0.898,0.289,1.828,0.449,2.758,0.449c1.379,0,2.758-0.353,4.009-0.994l26.741-14.477l26.786,14.451
						c2.053,1.122,4.522,1.312,6.735,0.542l26.167-9.086C276.797,207.032,251.823,233.118,221.741,233.132z"/>
					<path style="fill:#2D213F;" d="M59.498,93.117c-3.72-2.694-4.525-7.886-1.834-11.61l3.717-5.035
						c2.726-3.72,7.95-4.525,11.674-1.802c3.72,2.694,4.557,7.886,1.834,11.578l-3.717,5.067c-1.636,2.213-4.166,3.4-6.735,3.403
						C62.74,94.721,61.005,94.207,59.498,93.117z"/>
					<path style="fill:#2D213F;" d="M41.452,189.178c-21.189-52.237,3.778-87.46,4.868-88.936c2.691-3.72,7.918-4.557,11.674-1.867
						c3.72,2.694,4.557,7.854,1.899,11.578c-0.93,1.283-20.48,29.707-2.951,73.025c1.735,4.265-0.35,9.076-4.612,10.811
						c-1.026,0.417-2.085,0.609-3.143,0.609C45.88,194.402,42.738,192.415,41.452,189.178z"/>
				</g>
			</g>
		</g>
		<path style="fill:#F2CE75;" d="M142.436,211.657c-45.489,7.944-72.172-2.152-87.428-19.621c-0.754,0.728-1.652,1.334-2.681,1.754
			c-1.026,0.417-2.085,0.609-3.143,0.609c-3.303,0-6.446-1.985-7.732-5.224c-11.372-28.033-9.445-51.156-5.054-66.803
			c0.869-18.7,4.471-34.014,5.59-38.379c-15.493,15.994-25.291,39.415-25.278,65.492c0.022,48.074,33.328,87.152,74.282,87.136
			c20.015-0.01,38.145-9.442,51.464-24.669L142.436,211.657z"/>
		<path style="fill:#F2CE75;" d="M263.606,213.071c-58.112,17.533-87.64-12.597-100.087-32.164
			c7.094,30.066,30.461,52.237,58.225,52.224C238.01,233.124,252.747,225.451,263.606,213.071z"/>
	</g>
</g>
<g>
</g>
<g>
</g>
<g>
</g>
<g>
</g>
<g>
</g>
<g>
</g>
<g>
</g>
<g>
</g>
<g>
</g>
<g>
</g>
<g>
</g>
<g>
</g>
<g>
</g>
<g>
</g>
<g>
</g>
</svg>
